# xmcd CD database file
#
# Track frame offsets:
#	150
#	8386
#	19918
#	35909
#	50817
#	63574
#	76590
#	95805
#	114973
#	133313
#	148377
#	163103
#	180801
#	192675
#
# Disc length: 2695 seconds
#
# Revision: 0
# Processed by: cddbd v1.5.1PL0 Copyright (c) Steve Scherf et al.
# Submitted via: CDex 1.51
#
DISCID=c60a850e
DTITLE=Boi da Madre de Deus - Demonidor da Ilhas
DYEAR=2001
DGENRE=Folklore Nacional
TTITLE0=Madre de Deus de todo mundo
TTITLE1=La vai o leao devorador
TTITLE2=Demolidor da ilha
TTITLE3=Salve a Madre de Deus
TTITLE4=Madre de Deus berco da cultura
TTITLE5=Terra de belezas
TTITLE6=Minha inspiracao voa passarinho V
TTITLE7=Madre de Deus polo cultural
TTITLE8=Madre divina flor de S Luis
TTITLE9=Eu nao perco pra ninguem
TTITLE10=Pra quem nao sabe a terra tremeu
TTITLE11=Madre de Deus esta de luto
TTITLE12=Amelia de voce
TTITLE13=Passoas parecidas
EXTD=YEAR: 2001
EXTT0=
EXTT1=
EXTT2=
EXTT3=
EXTT4=
EXTT5=
EXTT6=
EXTT7=
EXTT8=
EXTT9=
EXTT10=
EXTT11=
EXTT12=
EXTT13=
PLAYORDER=
